<svg xmlns="http://www.w3.org/2000/svg" xmlns:xlink="http://www.w3.org/1999/xlink" width="241" zoomAndPan="magnify" viewBox="0 0 180.75 57.749997" height="77" preserveAspectRatio="xMidYMid meet" version="1.0"><defs><g/><clipPath id="3689bcbe1b"><path d="M 32.183594 15.101562 L 47 15.101562 L 47 42.730469 L 32.183594 42.730469 Z M 32.183594 15.101562 " clip-rule="nonzero"/></clipPath></defs><g fill="#00bf63" fill-opacity="1"><g transform="translate(6.757299, 41.818961)"><g><path d="M 18.328125 -7.109375 C 18.328125 -4.796875 17.492188 -2.972656 15.828125 -1.640625 C 14.171875 -0.316406 11.859375 0.34375 8.890625 0.34375 C 6.160156 0.34375 3.742188 -0.164062 1.640625 -1.1875 L 1.640625 -6.234375 C 3.367188 -5.460938 4.832031 -4.914062 6.03125 -4.59375 C 7.226562 -4.28125 8.320312 -4.125 9.3125 -4.125 C 10.5 -4.125 11.410156 -4.351562 12.046875 -4.8125 C 12.679688 -5.269531 13 -5.945312 13 -6.84375 C 13 -7.34375 12.859375 -7.785156 12.578125 -8.171875 C 12.296875 -8.566406 11.882812 -8.945312 11.34375 -9.3125 C 10.800781 -9.675781 9.695312 -10.253906 8.03125 -11.046875 C 6.46875 -11.773438 5.296875 -12.476562 4.515625 -13.15625 C 3.734375 -13.832031 3.109375 -14.617188 2.640625 -15.515625 C 2.171875 -16.421875 1.9375 -17.472656 1.9375 -18.671875 C 1.9375 -20.929688 2.703125 -22.707031 4.234375 -24 C 5.773438 -25.300781 7.898438 -25.953125 10.609375 -25.953125 C 11.929688 -25.953125 13.195312 -25.796875 14.40625 -25.484375 C 15.613281 -25.171875 16.878906 -24.726562 18.203125 -24.15625 L 16.453125 -19.9375 C 15.085938 -20.5 13.957031 -20.890625 13.0625 -21.109375 C 12.164062 -21.328125 11.289062 -21.4375 10.4375 -21.4375 C 9.40625 -21.4375 8.613281 -21.195312 8.0625 -20.71875 C 7.519531 -20.238281 7.25 -19.613281 7.25 -18.84375 C 7.25 -18.363281 7.359375 -17.945312 7.578125 -17.59375 C 7.796875 -17.238281 8.144531 -16.894531 8.625 -16.5625 C 9.113281 -16.226562 10.265625 -15.628906 12.078125 -14.765625 C 14.472656 -13.628906 16.113281 -12.484375 17 -11.328125 C 17.882812 -10.179688 18.328125 -8.773438 18.328125 -7.109375 Z M 18.328125 -7.109375 "/></g></g></g><g fill="#00bf63" fill-opacity="1"><g transform="translate(28.296865, 41.818961)"><g/></g></g><g fill="#00bf63" fill-opacity="1"><g transform="translate(39.400359, 41.818961)"><g/></g></g><g fill="#00bf63" fill-opacity="1"><g transform="translate(50.513188, 41.818961)"><g><path d="M 23.796875 0 L 17.640625 0 L 10.9375 -10.78125 L 8.640625 -9.140625 L 8.640625 0 L 3.21875 0 L 3.21875 -25.59375 L 8.640625 -25.59375 L 8.640625 -13.875 L 10.78125 -16.890625 L 17.71875 -25.59375 L 23.734375 -25.59375 L 14.8125 -14.265625 Z M 23.796875 0 "/></g></g></g><g fill="#00bf63" fill-opacity="1"><g transform="translate(76.108634, 41.818961)"><g><path d="M 18.890625 0 L 17.03125 -6.09375 L 7.703125 -6.09375 L 5.84375 0 L 0 0 L 9.03125 -25.6875 L 15.671875 -25.6875 L 24.734375 0 Z M 15.734375 -10.640625 C 14.015625 -16.160156 13.046875 -19.28125 12.828125 -20 C 12.617188 -20.726562 12.46875 -21.300781 12.375 -21.71875 C 11.988281 -20.226562 10.882812 -16.535156 9.0625 -10.640625 Z M 15.734375 -10.640625 "/></g></g></g><g fill="#00bf63" fill-opacity="1"><g transform="translate(102.631705, 41.818961)"><g><path d="M 24.453125 -13.03125 C 24.453125 -8.820312 23.25 -5.597656 20.84375 -3.359375 C 18.445312 -1.117188 14.988281 0 10.46875 0 L 3.21875 0 L 3.21875 -25.59375 L 11.25 -25.59375 C 15.425781 -25.59375 18.671875 -24.488281 20.984375 -22.28125 C 23.296875 -20.070312 24.453125 -16.988281 24.453125 -13.03125 Z M 18.8125 -12.90625 C 18.8125 -18.394531 16.382812 -21.140625 11.53125 -21.140625 L 8.640625 -21.140625 L 8.640625 -4.484375 L 10.96875 -4.484375 C 16.195312 -4.484375 18.8125 -7.289062 18.8125 -12.90625 Z M 18.8125 -12.90625 "/></g></g></g><g fill="#00bf63" fill-opacity="1"><g transform="translate(130.957519, 41.818961)"><g><path d="M 3.21875 0 L 3.21875 -25.59375 L 8.640625 -25.59375 L 8.640625 0 Z M 3.21875 0 "/></g></g></g><g fill="#00bf63" fill-opacity="1"><g transform="translate(144.616359, 41.818961)"><g><path d="M 25.921875 0 L 19.03125 0 L 7.890625 -19.359375 L 7.734375 -19.359375 C 7.953125 -15.941406 8.0625 -13.503906 8.0625 -12.046875 L 8.0625 0 L 3.21875 0 L 3.21875 -25.59375 L 10.0625 -25.59375 L 21.171875 -6.421875 L 21.296875 -6.421875 C 21.117188 -9.742188 21.03125 -12.09375 21.03125 -13.46875 L 21.03125 -25.59375 L 25.921875 -25.59375 Z M 25.921875 0 "/></g></g></g><g clip-path="url(#3689bcbe1b)"><path fill="#ffbd59" d="M 39.851562 35.183594 C 39.605469 37.605469 39.15625 40 38.707031 42.386719 L 46.917969 42.386719 C 46.128906 41.078125 45.359375 39.742188 44.769531 38.328125 C 44.300781 37.203125 43.910156 35.996094 43.851562 34.765625 C 43.777344 33.300781 44.375 32.277344 43.734375 30.816406 C 43.257812 29.730469 42.125 28.957031 42.664062 27.589844 L 42.917969 26.660156 C 42.917969 27.476562 42.96875 28.289062 43.015625 29.101562 C 43.058594 29.246094 43.5625 29.449219 43.640625 29.558594 C 43.707031 29.652344 43.636719 29.808594 43.699219 29.914062 C 43.734375 29.972656 43.933594 30.050781 43.957031 30.085938 C 44.011719 30.175781 43.945312 30.832031 43.96875 31.007812 C 43.996094 31.210938 44.386719 31.242188 44.417969 31.292969 C 44.460938 31.359375 44.355469 31.53125 44.484375 31.636719 C 44.625 31.753906 45.121094 31.804688 45.144531 31.832031 C 45.152344 31.839844 45.089844 31.964844 45.136719 32.066406 C 45.152344 32.101562 45.332031 32.246094 45.355469 32.222656 C 45.347656 31.96875 45.363281 31.710938 45.355469 31.453125 C 45.25 27.753906 44.671875 23.433594 43.84375 19.824219 C 43.640625 18.945312 43.398438 17.382812 42.273438 17.304688 C 42 17.285156 42.035156 17.332031 41.753906 17.253906 C 41.230469 17.105469 40.21875 17.242188 39.988281 17.816406 C 39.882812 18.078125 40.039062 18.121094 40.027344 18.1875 C 40.019531 18.226562 39.90625 18.355469 39.882812 18.433594 C 39.847656 18.546875 39.890625 18.589844 39.882812 18.667969 C 39.847656 18.976562 39.574219 19.03125 39.386719 19.199219 C 39.011719 19.53125 39.574219 19.613281 39.582031 19.664062 C 39.414062 19.808594 39.546875 19.882812 39.550781 19.964844 C 39.550781 20.015625 39.492188 20.054688 39.503906 20.101562 C 39.519531 20.175781 39.609375 20.1875 39.613281 20.210938 C 39.628906 20.308594 39.425781 20.402344 39.515625 20.605469 C 39.636719 20.886719 40.214844 20.746094 40.433594 20.886719 C 40.566406 20.972656 40.777344 21.628906 40.835938 21.808594 C 40.90625 22.042969 41.015625 22.34375 40.996094 22.585938 C 40.976562 22.816406 40.488281 23.679688 40.332031 23.90625 C 39.894531 24.558594 39.078125 24.726562 39.191406 25.707031 C 39.214844 25.90625 39.335938 26.128906 39.460938 26.28125 C 39.695312 26.570312 39.800781 26.46875 39.898438 26.898438 C 40.003906 27.382812 40.023438 28.433594 39.972656 28.929688 C 39.957031 29.089844 39.375 30.253906 39.257812 30.441406 C 39.238281 30.46875 39.261719 30.492188 39.191406 30.476562 C 38.996094 30.023438 38.734375 29.601562 38.5 29.167969 C 38.574219 27.054688 38.277344 25.078125 37.558594 23.101562 L 37.167969 22.269531 C 37.015625 21.949219 36.84375 21.640625 36.640625 21.355469 C 36.433594 21.066406 36.515625 21.140625 36.511719 21.109375 C 36.503906 20.972656 36.71875 20.800781 36.6875 20.695312 C 36.664062 20.597656 36.253906 20.316406 36.242188 20.207031 C 36.234375 20.125 36.390625 19.734375 36.472656 19.714844 C 36.644531 19.671875 37.007812 20.011719 37.3125 19.769531 C 37.515625 19.609375 37.355469 19.433594 37.390625 19.3125 C 37.40625 19.242188 37.527344 19.222656 37.550781 19.167969 C 37.574219 19.125 37.519531 19.035156 37.535156 19.019531 C 37.542969 19.011719 37.605469 19.039062 37.628906 19 C 37.65625 18.949219 37.648438 18.785156 37.65625 18.777344 C 37.691406 18.738281 37.980469 18.898438 38.0625 18.71875 C 38.160156 18.496094 37.789062 18.027344 37.914062 17.816406 C 37.976562 17.714844 38.085938 17.699219 38.078125 17.53125 C 38.078125 17.488281 38.046875 17.449219 38.046875 17.441406 L 38.046875 16.792969 C 38.273438 16.898438 38.632812 16.71875 38.648438 16.460938 L 38.410156 16.523438 C 38.429688 16.457031 38.464844 16.199219 38.433594 16.167969 C 38.414062 16.140625 38.203125 16.085938 38.160156 16.070312 C 38.128906 16.054688 38.121094 15.972656 38.019531 16.011719 L 38.078125 15.949219 C 37.863281 16.003906 37.804688 15.820312 37.683594 15.726562 C 37.507812 15.589844 36.480469 15.171875 36.253906 15.144531 C 35.929688 15.105469 35.589844 15.183594 35.324219 15.382812 L 35.296875 15.292969 C 35.152344 15.324219 35.15625 15.492188 35.121094 15.523438 C 35.109375 15.539062 35.019531 15.550781 34.976562 15.574219 C 34.488281 15.871094 34.273438 16.589844 34.320312 17.136719 C 34.359375 17.578125 34.574219 17.972656 34.523438 18.429688 C 34.519531 18.496094 34.398438 18.996094 34.375 19.019531 C 34.34375 19.042969 34.167969 18.984375 34.121094 19.050781 C 34.011719 19.257812 33.953125 19.5625 33.832031 19.753906 C 33.730469 19.914062 33.464844 20.128906 33.324219 20.300781 C 32.484375 21.34375 32.320312 22.539062 32.359375 23.851562 C 32.402344 25.089844 32.566406 26.335938 32.605469 27.578125 C 32.703125 30.769531 32.300781 34.011719 32.183594 37.203125 C 32.199219 37.417969 32.519531 37.488281 32.699219 37.554688 C 33.257812 37.757812 33.878906 37.914062 34.46875 37.96875 C 34.492188 38.195312 34.273438 38.355469 34.257812 38.589844 C 34.25 38.734375 34.316406 38.902344 34.285156 39.0625 C 34.269531 39.15625 34.113281 39.425781 34.070312 39.570312 C 33.800781 40.453125 33.753906 41.472656 33.714844 42.390625 L 36.605469 42.390625 C 36.644531 41.9375 36.632812 41.472656 36.695312 41.023438 C 36.761719 40.578125 36.972656 40.132812 37.070312 39.683594 C 37.199219 39.101562 37.246094 38.492188 37.363281 37.902344 C 37.632812 36.566406 37.988281 35.46875 38.136719 34.074219 C 38.15625 33.886719 38.140625 33.574219 38.175781 33.417969 C 38.230469 33.164062 38.375 33.390625 38.511719 33.367188 C 38.578125 33.359375 38.609375 33.285156 38.632812 33.285156 C 38.667969 33.28125 38.695312 33.347656 38.800781 33.324219 C 38.835938 33.316406 38.980469 33.210938 38.992188 33.1875 C 39.039062 33.097656 38.964844 33.019531 38.992188 32.976562 C 39.011719 32.949219 39.085938 32.925781 39.117188 32.886719 C 39.15625 32.847656 39.160156 32.773438 39.191406 32.75 C 39.226562 32.726562 39.28125 32.742188 39.328125 32.707031 C 39.382812 32.65625 39.390625 32.507812 39.425781 32.445312 C 39.488281 32.324219 39.605469 32.269531 39.582031 32.09375 C 39.574219 32.046875 39.527344 31.988281 39.53125 31.96875 C 39.53125 31.941406 39.59375 31.914062 39.605469 31.875 C 39.625 31.8125 39.601562 31.742188 39.621094 31.675781 C 39.648438 31.5625 39.914062 31.3125 39.957031 31.171875 C 39.957031 31.578125 40.101562 31.992188 40.09375 32.390625 C 40.082031 33.238281 39.941406 34.328125 39.851562 35.1875 Z M 39.851562 35.183594 " fill-opacity="1" fill-rule="nonzero"/></g><g fill="#00bf63" fill-opacity="1"><g transform="translate(9.369478, 47.659703)"><g><path d="M 1.578125 0.03125 C 1.316406 0.03125 1.082031 -0.0078125 0.875 -0.09375 C 0.675781 -0.175781 0.515625 -0.296875 0.390625 -0.453125 C 0.273438 -0.617188 0.210938 -0.816406 0.203125 -1.046875 L 1.109375 -1.046875 C 1.128906 -0.921875 1.175781 -0.820312 1.25 -0.75 C 1.320312 -0.675781 1.421875 -0.640625 1.546875 -0.640625 C 1.671875 -0.640625 1.769531 -0.671875 1.84375 -0.734375 C 1.914062 -0.796875 1.953125 -0.878906 1.953125 -0.984375 C 1.953125 -1.066406 1.921875 -1.132812 1.859375 -1.1875 C 1.804688 -1.25 1.738281 -1.296875 1.65625 -1.328125 C 1.570312 -1.367188 1.453125 -1.410156 1.296875 -1.453125 C 1.066406 -1.523438 0.878906 -1.59375 0.734375 -1.65625 C 0.597656 -1.726562 0.476562 -1.832031 0.375 -1.96875 C 0.269531 -2.101562 0.21875 -2.28125 0.21875 -2.5 C 0.21875 -2.832031 0.332031 -3.085938 0.5625 -3.265625 C 0.800781 -3.453125 1.113281 -3.546875 1.5 -3.546875 C 1.882812 -3.546875 2.191406 -3.453125 2.421875 -3.265625 C 2.660156 -3.085938 2.789062 -2.832031 2.8125 -2.5 L 1.890625 -2.5 C 1.878906 -2.613281 1.832031 -2.703125 1.75 -2.765625 C 1.675781 -2.828125 1.582031 -2.859375 1.46875 -2.859375 C 1.363281 -2.859375 1.28125 -2.832031 1.21875 -2.78125 C 1.15625 -2.726562 1.125 -2.648438 1.125 -2.546875 C 1.125 -2.429688 1.175781 -2.34375 1.28125 -2.28125 C 1.382812 -2.21875 1.550781 -2.148438 1.78125 -2.078125 C 2.007812 -2.003906 2.191406 -1.929688 2.328125 -1.859375 C 2.472656 -1.785156 2.59375 -1.679688 2.6875 -1.546875 C 2.789062 -1.421875 2.84375 -1.253906 2.84375 -1.046875 C 2.84375 -0.847656 2.789062 -0.664062 2.6875 -0.5 C 2.59375 -0.332031 2.445312 -0.203125 2.25 -0.109375 C 2.0625 -0.015625 1.835938 0.03125 1.578125 0.03125 Z M 1.578125 0.03125 "/></g></g></g><g fill="#00bf63" fill-opacity="1"><g transform="translate(13.277578, 47.659703)"><g><path d="M 1.15625 -3.5 L 1.15625 0 L 0.3125 0 L 0.3125 -3.5 Z M 1.15625 -3.5 "/></g></g></g><g fill="#00bf63" fill-opacity="1"><g transform="translate(15.592565, 47.659703)"><g><path d="M 1.578125 0.03125 C 1.316406 0.03125 1.082031 -0.0078125 0.875 -0.09375 C 0.675781 -0.175781 0.515625 -0.296875 0.390625 -0.453125 C 0.273438 -0.617188 0.210938 -0.816406 0.203125 -1.046875 L 1.109375 -1.046875 C 1.128906 -0.921875 1.175781 -0.820312 1.25 -0.75 C 1.320312 -0.675781 1.421875 -0.640625 1.546875 -0.640625 C 1.671875 -0.640625 1.769531 -0.671875 1.84375 -0.734375 C 1.914062 -0.796875 1.953125 -0.878906 1.953125 -0.984375 C 1.953125 -1.066406 1.921875 -1.132812 1.859375 -1.1875 C 1.804688 -1.25 1.738281 -1.296875 1.65625 -1.328125 C 1.570312 -1.367188 1.453125 -1.410156 1.296875 -1.453125 C 1.066406 -1.523438 0.878906 -1.59375 0.734375 -1.65625 C 0.597656 -1.726562 0.476562 -1.832031 0.375 -1.96875 C 0.269531 -2.101562 0.21875 -2.28125 0.21875 -2.5 C 0.21875 -2.832031 0.332031 -3.085938 0.5625 -3.265625 C 0.800781 -3.453125 1.113281 -3.546875 1.5 -3.546875 C 1.882812 -3.546875 2.191406 -3.453125 2.421875 -3.265625 C 2.660156 -3.085938 2.789062 -2.832031 2.8125 -2.5 L 1.890625 -2.5 C 1.878906 -2.613281 1.832031 -2.703125 1.75 -2.765625 C 1.675781 -2.828125 1.582031 -2.859375 1.46875 -2.859375 C 1.363281 -2.859375 1.28125 -2.832031 1.21875 -2.78125 C 1.15625 -2.726562 1.125 -2.648438 1.125 -2.546875 C 1.125 -2.429688 1.175781 -2.34375 1.28125 -2.28125 C 1.382812 -2.21875 1.550781 -2.148438 1.78125 -2.078125 C 2.007812 -2.003906 2.191406 -1.929688 2.328125 -1.859375 C 2.472656 -1.785156 2.59375 -1.679688 2.6875 -1.546875 C 2.789062 -1.421875 2.84375 -1.253906 2.84375 -1.046875 C 2.84375 -0.847656 2.789062 -0.664062 2.6875 -0.5 C 2.59375 -0.332031 2.445312 -0.203125 2.25 -0.109375 C 2.0625 -0.015625 1.835938 0.03125 1.578125 0.03125 Z M 1.578125 0.03125 "/></g></g></g><g fill="#00bf63" fill-opacity="1"><g transform="translate(19.500664, 47.659703)"><g><path d="M 2.828125 -3.5 L 2.828125 -2.8125 L 1.90625 -2.8125 L 1.90625 0 L 1.046875 0 L 1.046875 -2.8125 L 0.125 -2.8125 L 0.125 -3.5 Z M 2.828125 -3.5 "/></g></g></g><g fill="#00bf63" fill-opacity="1"><g transform="translate(23.289285, 47.659703)"><g><path d="M 1.15625 -2.8125 L 1.15625 -2.109375 L 2.296875 -2.109375 L 2.296875 -1.453125 L 1.15625 -1.453125 L 1.15625 -0.6875 L 2.453125 -0.6875 L 2.453125 0 L 0.3125 0 L 0.3125 -3.5 L 2.453125 -3.5 L 2.453125 -2.8125 Z M 1.15625 -2.8125 "/></g></g></g><g fill="#00bf63" fill-opacity="1"><g transform="translate(26.82898, 47.659703)"><g><path d="M 4.265625 -3.5 L 4.265625 0 L 3.421875 0 L 3.421875 -2.09375 L 2.640625 0 L 1.953125 0 L 1.15625 -2.109375 L 1.15625 0 L 0.3125 0 L 0.3125 -3.5 L 1.3125 -3.5 L 2.296875 -1.078125 L 3.265625 -3.5 Z M 4.265625 -3.5 "/></g></g></g><g fill="#00bf63" fill-opacity="1"><g transform="translate(32.245563, 47.659703)"><g/></g></g><g fill="#00bf63" fill-opacity="1"><g transform="translate(34.147338, 47.659703)"><g><path d="M 1.15625 -3.5 L 1.15625 0 L 0.3125 0 L 0.3125 -3.5 Z M 1.15625 -3.5 "/></g></g></g><g fill="#00bf63" fill-opacity="1"><g transform="translate(36.462324, 47.659703)"><g><path d="M 3.4375 0 L 2.59375 0 L 1.15625 -2.15625 L 1.15625 0 L 0.3125 0 L 0.3125 -3.5 L 1.15625 -3.5 L 2.59375 -1.328125 L 2.59375 -3.5 L 3.4375 -3.5 Z M 3.4375 0 "/></g></g></g><g fill="#00bf63" fill-opacity="1"><g transform="translate(41.052477, 47.659703)"><g><path d="M 2.59375 -3.5 L 2.59375 -2.8125 L 1.15625 -2.8125 L 1.15625 -2.078125 L 2.234375 -2.078125 L 2.234375 -1.421875 L 1.15625 -1.421875 L 1.15625 0 L 0.3125 0 L 0.3125 -3.5 Z M 2.59375 -3.5 "/></g></g></g><g fill="#00bf63" fill-opacity="1"><g transform="translate(44.622039, 47.659703)"><g><path d="M 1.96875 0.03125 C 1.632812 0.03125 1.328125 -0.0390625 1.046875 -0.1875 C 0.773438 -0.34375 0.5625 -0.554688 0.40625 -0.828125 C 0.25 -1.109375 0.171875 -1.421875 0.171875 -1.765625 C 0.171875 -2.097656 0.25 -2.398438 0.40625 -2.671875 C 0.5625 -2.953125 0.773438 -3.164062 1.046875 -3.3125 C 1.328125 -3.46875 1.632812 -3.546875 1.96875 -3.546875 C 2.289062 -3.546875 2.585938 -3.46875 2.859375 -3.3125 C 3.140625 -3.164062 3.359375 -2.953125 3.515625 -2.671875 C 3.671875 -2.398438 3.75 -2.097656 3.75 -1.765625 C 3.75 -1.421875 3.671875 -1.109375 3.515625 -0.828125 C 3.359375 -0.554688 3.140625 -0.34375 2.859375 -0.1875 C 2.585938 -0.0390625 2.289062 0.03125 1.96875 0.03125 Z M 1.96875 -0.75 C 2.238281 -0.75 2.457031 -0.835938 2.625 -1.015625 C 2.800781 -1.203125 2.890625 -1.453125 2.890625 -1.765625 C 2.890625 -2.066406 2.800781 -2.3125 2.625 -2.5 C 2.457031 -2.6875 2.238281 -2.78125 1.96875 -2.78125 C 1.6875 -2.78125 1.457031 -2.6875 1.28125 -2.5 C 1.113281 -2.320312 1.03125 -2.078125 1.03125 -1.765625 C 1.03125 -1.453125 1.113281 -1.203125 1.28125 -1.015625 C 1.457031 -0.835938 1.6875 -0.75 1.96875 -0.75 Z M 1.96875 -0.75 "/></g></g></g><g fill="#00bf63" fill-opacity="1"><g transform="translate(49.381461, 47.659703)"><g><path d="M 2.09375 0 L 1.359375 -1.328125 L 1.15625 -1.328125 L 1.15625 0 L 0.3125 0 L 0.3125 -3.5 L 1.734375 -3.5 C 2.015625 -3.5 2.25 -3.445312 2.4375 -3.34375 C 2.632812 -3.25 2.78125 -3.117188 2.875 -2.953125 C 2.976562 -2.785156 3.03125 -2.597656 3.03125 -2.390625 C 3.03125 -2.160156 2.960938 -1.953125 2.828125 -1.765625 C 2.691406 -1.585938 2.5 -1.460938 2.25 -1.390625 L 3.0625 0 Z M 1.15625 -1.921875 L 1.6875 -1.921875 C 1.84375 -1.921875 1.957031 -1.957031 2.03125 -2.03125 C 2.113281 -2.113281 2.15625 -2.222656 2.15625 -2.359375 C 2.15625 -2.492188 2.113281 -2.597656 2.03125 -2.671875 C 1.957031 -2.753906 1.84375 -2.796875 1.6875 -2.796875 L 1.15625 -2.796875 Z M 1.15625 -1.921875 "/></g></g></g><g fill="#00bf63" fill-opacity="1"><g transform="translate(53.473764, 47.659703)"><g><path d="M 4.265625 -3.5 L 4.265625 0 L 3.421875 0 L 3.421875 -2.09375 L 2.640625 0 L 1.953125 0 L 1.15625 -2.109375 L 1.15625 0 L 0.3125 0 L 0.3125 -3.5 L 1.3125 -3.5 L 2.296875 -1.078125 L 3.265625 -3.5 Z M 4.265625 -3.5 "/></g></g></g><g fill="#00bf63" fill-opacity="1"><g transform="translate(58.890347, 47.659703)"><g><path d="M 2.484375 -0.625 L 1.1875 -0.625 L 0.96875 0 L 0.078125 0 L 1.34375 -3.5 L 2.328125 -3.5 L 3.59375 0 L 2.703125 0 Z M 2.265625 -1.28125 L 1.828125 -2.5625 L 1.40625 -1.28125 Z M 2.265625 -1.28125 "/></g></g></g><g fill="#00bf63" fill-opacity="1"><g transform="translate(63.405817, 47.659703)"><g><path d="M 1.578125 0.03125 C 1.316406 0.03125 1.082031 -0.0078125 0.875 -0.09375 C 0.675781 -0.175781 0.515625 -0.296875 0.390625 -0.453125 C 0.273438 -0.617188 0.210938 -0.816406 0.203125 -1.046875 L 1.109375 -1.046875 C 1.128906 -0.921875 1.175781 -0.820312 1.25 -0.75 C 1.320312 -0.675781 1.421875 -0.640625 1.546875 -0.640625 C 1.671875 -0.640625 1.769531 -0.671875 1.84375 -0.734375 C 1.914062 -0.796875 1.953125 -0.878906 1.953125 -0.984375 C 1.953125 -1.066406 1.921875 -1.132812 1.859375 -1.1875 C 1.804688 -1.25 1.738281 -1.296875 1.65625 -1.328125 C 1.570312 -1.367188 1.453125 -1.410156 1.296875 -1.453125 C 1.066406 -1.523438 0.878906 -1.59375 0.734375 -1.65625 C 0.597656 -1.726562 0.476562 -1.832031 0.375 -1.96875 C 0.269531 -2.101562 0.21875 -2.28125 0.21875 -2.5 C 0.21875 -2.832031 0.332031 -3.085938 0.5625 -3.265625 C 0.800781 -3.453125 1.113281 -3.546875 1.5 -3.546875 C 1.882812 -3.546875 2.191406 -3.453125 2.421875 -3.265625 C 2.660156 -3.085938 2.789062 -2.832031 2.8125 -2.5 L 1.890625 -2.5 C 1.878906 -2.613281 1.832031 -2.703125 1.75 -2.765625 C 1.675781 -2.828125 1.582031 -2.859375 1.46875 -2.859375 C 1.363281 -2.859375 1.28125 -2.832031 1.21875 -2.78125 C 1.15625 -2.726562 1.125 -2.648438 1.125 -2.546875 C 1.125 -2.429688 1.175781 -2.34375 1.28125 -2.28125 C 1.382812 -2.21875 1.550781 -2.148438 1.78125 -2.078125 C 2.007812 -2.003906 2.191406 -1.929688 2.328125 -1.859375 C 2.472656 -1.785156 2.59375 -1.679688 2.6875 -1.546875 C 2.789062 -1.421875 2.84375 -1.253906 2.84375 -1.046875 C 2.84375 -0.847656 2.789062 -0.664062 2.6875 -0.5 C 2.59375 -0.332031 2.445312 -0.203125 2.25 -0.109375 C 2.0625 -0.015625 1.835938 0.03125 1.578125 0.03125 Z M 1.578125 0.03125 "/></g></g></g><g fill="#00bf63" fill-opacity="1"><g transform="translate(67.313914, 47.659703)"><g><path d="M 1.15625 -3.5 L 1.15625 0 L 0.3125 0 L 0.3125 -3.5 Z M 1.15625 -3.5 "/></g></g></g><g fill="#00bf63" fill-opacity="1"><g transform="translate(69.628898, 47.659703)"><g/></g></g><g fill="#00bf63" fill-opacity="1"><g transform="translate(71.53067, 47.659703)"><g><path d="M 2.34375 0 L 1.15625 -1.546875 L 1.15625 0 L 0.3125 0 L 0.3125 -3.5 L 1.15625 -3.5 L 1.15625 -1.96875 L 2.328125 -3.5 L 3.328125 -3.5 L 1.96875 -1.78125 L 3.375 0 Z M 2.34375 0 "/></g></g></g><g fill="#00bf63" fill-opacity="1"><g transform="translate(75.847004, 47.659703)"><g><path d="M 1.15625 -0.65625 L 2.28125 -0.65625 L 2.28125 0 L 0.3125 0 L 0.3125 -3.5 L 1.15625 -3.5 Z M 1.15625 -0.65625 "/></g></g></g><g fill="#00bf63" fill-opacity="1"><g transform="translate(79.068073, 47.659703)"><g><path d="M 2.484375 -0.625 L 1.1875 -0.625 L 0.96875 0 L 0.078125 0 L 1.34375 -3.5 L 2.328125 -3.5 L 3.59375 0 L 2.703125 0 Z M 2.265625 -1.28125 L 1.828125 -2.5625 L 1.40625 -1.28125 Z M 2.265625 -1.28125 "/></g></g></g><g fill="#00bf63" fill-opacity="1"><g transform="translate(83.583543, 47.659703)"><g><path d="M 1.578125 0.03125 C 1.316406 0.03125 1.082031 -0.0078125 0.875 -0.09375 C 0.675781 -0.175781 0.515625 -0.296875 0.390625 -0.453125 C 0.273438 -0.617188 0.210938 -0.816406 0.203125 -1.046875 L 1.109375 -1.046875 C 1.128906 -0.921875 1.175781 -0.820312 1.25 -0.75 C 1.320312 -0.675781 1.421875 -0.640625 1.546875 -0.640625 C 1.671875 -0.640625 1.769531 -0.671875 1.84375 -0.734375 C 1.914062 -0.796875 1.953125 -0.878906 1.953125 -0.984375 C 1.953125 -1.066406 1.921875 -1.132812 1.859375 -1.1875 C 1.804688 -1.25 1.738281 -1.296875 1.65625 -1.328125 C 1.570312 -1.367188 1.453125 -1.410156 1.296875 -1.453125 C 1.066406 -1.523438 0.878906 -1.59375 0.734375 -1.65625 C 0.597656 -1.726562 0.476562 -1.832031 0.375 -1.96875 C 0.269531 -2.101562 0.21875 -2.28125 0.21875 -2.5 C 0.21875 -2.832031 0.332031 -3.085938 0.5625 -3.265625 C 0.800781 -3.453125 1.113281 -3.546875 1.5 -3.546875 C 1.882812 -3.546875 2.191406 -3.453125 2.421875 -3.265625 C 2.660156 -3.085938 2.789062 -2.832031 2.8125 -2.5 L 1.890625 -2.5 C 1.878906 -2.613281 1.832031 -2.703125 1.75 -2.765625 C 1.675781 -2.828125 1.582031 -2.859375 1.46875 -2.859375 C 1.363281 -2.859375 1.28125 -2.832031 1.21875 -2.78125 C 1.15625 -2.726562 1.125 -2.648438 1.125 -2.546875 C 1.125 -2.429688 1.175781 -2.34375 1.28125 -2.28125 C 1.382812 -2.21875 1.550781 -2.148438 1.78125 -2.078125 C 2.007812 -2.003906 2.191406 -1.929688 2.328125 -1.859375 C 2.472656 -1.785156 2.59375 -1.679688 2.6875 -1.546875 C 2.789062 -1.421875 2.84375 -1.253906 2.84375 -1.046875 C 2.84375 -0.847656 2.789062 -0.664062 2.6875 -0.5 C 2.59375 -0.332031 2.445312 -0.203125 2.25 -0.109375 C 2.0625 -0.015625 1.835938 0.03125 1.578125 0.03125 Z M 1.578125 0.03125 "/></g></g></g><g fill="#00bf63" fill-opacity="1"><g transform="translate(87.491641, 47.659703)"><g><path d="M 1.15625 -3.5 L 1.15625 0 L 0.3125 0 L 0.3125 -3.5 Z M 1.15625 -3.5 "/></g></g></g><g fill="#00bf63" fill-opacity="1"><g transform="translate(89.806625, 47.659703)"><g><path d="M 2.59375 -3.5 L 2.59375 -2.8125 L 1.15625 -2.8125 L 1.15625 -2.078125 L 2.234375 -2.078125 L 2.234375 -1.421875 L 1.15625 -1.421875 L 1.15625 0 L 0.3125 0 L 0.3125 -3.5 Z M 2.59375 -3.5 "/></g></g></g><g fill="#00bf63" fill-opacity="1"><g transform="translate(93.376184, 47.659703)"><g><path d="M 1.15625 -3.5 L 1.15625 0 L 0.3125 0 L 0.3125 -3.5 Z M 1.15625 -3.5 "/></g></g></g><g fill="#00bf63" fill-opacity="1"><g transform="translate(95.691168, 47.659703)"><g><path d="M 2.34375 0 L 1.15625 -1.546875 L 1.15625 0 L 0.3125 0 L 0.3125 -3.5 L 1.15625 -3.5 L 1.15625 -1.96875 L 2.328125 -3.5 L 3.328125 -3.5 L 1.96875 -1.78125 L 3.375 0 Z M 2.34375 0 "/></g></g></g><g fill="#00bf63" fill-opacity="1"><g transform="translate(100.007501, 47.659703)"><g><path d="M 2.484375 -0.625 L 1.1875 -0.625 L 0.96875 0 L 0.078125 0 L 1.34375 -3.5 L 2.328125 -3.5 L 3.59375 0 L 2.703125 0 Z M 2.265625 -1.28125 L 1.828125 -2.5625 L 1.40625 -1.28125 Z M 2.265625 -1.28125 "/></g></g></g><g fill="#00bf63" fill-opacity="1"><g transform="translate(104.522971, 47.659703)"><g><path d="M 1.578125 0.03125 C 1.316406 0.03125 1.082031 -0.0078125 0.875 -0.09375 C 0.675781 -0.175781 0.515625 -0.296875 0.390625 -0.453125 C 0.273438 -0.617188 0.210938 -0.816406 0.203125 -1.046875 L 1.109375 -1.046875 C 1.128906 -0.921875 1.175781 -0.820312 1.25 -0.75 C 1.320312 -0.675781 1.421875 -0.640625 1.546875 -0.640625 C 1.671875 -0.640625 1.769531 -0.671875 1.84375 -0.734375 C 1.914062 -0.796875 1.953125 -0.878906 1.953125 -0.984375 C 1.953125 -1.066406 1.921875 -1.132812 1.859375 -1.1875 C 1.804688 -1.25 1.738281 -1.296875 1.65625 -1.328125 C 1.570312 -1.367188 1.453125 -1.410156 1.296875 -1.453125 C 1.066406 -1.523438 0.878906 -1.59375 0.734375 -1.65625 C 0.597656 -1.726562 0.476562 -1.832031 0.375 -1.96875 C 0.269531 -2.101562 0.21875 -2.28125 0.21875 -2.5 C 0.21875 -2.832031 0.332031 -3.085938 0.5625 -3.265625 C 0.800781 -3.453125 1.113281 -3.546875 1.5 -3.546875 C 1.882812 -3.546875 2.191406 -3.453125 2.421875 -3.265625 C 2.660156 -3.085938 2.789062 -2.832031 2.8125 -2.5 L 1.890625 -2.5 C 1.878906 -2.613281 1.832031 -2.703125 1.75 -2.765625 C 1.675781 -2.828125 1.582031 -2.859375 1.46875 -2.859375 C 1.363281 -2.859375 1.28125 -2.832031 1.21875 -2.78125 C 1.15625 -2.726562 1.125 -2.648438 1.125 -2.546875 C 1.125 -2.429688 1.175781 -2.34375 1.28125 -2.28125 C 1.382812 -2.21875 1.550781 -2.148438 1.78125 -2.078125 C 2.007812 -2.003906 2.191406 -1.929688 2.328125 -1.859375 C 2.472656 -1.785156 2.59375 -1.679688 2.6875 -1.546875 C 2.789062 -1.421875 2.84375 -1.253906 2.84375 -1.046875 C 2.84375 -0.847656 2.789062 -0.664062 2.6875 -0.5 C 2.59375 -0.332031 2.445312 -0.203125 2.25 -0.109375 C 2.0625 -0.015625 1.835938 0.03125 1.578125 0.03125 Z M 1.578125 0.03125 "/></g></g></g><g fill="#00bf63" fill-opacity="1"><g transform="translate(108.431069, 47.659703)"><g><path d="M 1.15625 -3.5 L 1.15625 0 L 0.3125 0 L 0.3125 -3.5 Z M 1.15625 -3.5 "/></g></g></g><g fill="#00bf63" fill-opacity="1"><g transform="translate(110.746053, 47.659703)"><g/></g></g><g fill="#00bf63" fill-opacity="1"><g transform="translate(112.647825, 47.659703)"><g><path d="M 2.96875 -2.375 C 2.96875 -2.164062 2.921875 -1.976562 2.828125 -1.8125 C 2.742188 -1.644531 2.601562 -1.507812 2.40625 -1.40625 C 2.21875 -1.300781 1.976562 -1.25 1.6875 -1.25 L 1.15625 -1.25 L 1.15625 0 L 0.3125 0 L 0.3125 -3.5 L 1.6875 -3.5 C 1.96875 -3.5 2.203125 -3.445312 2.390625 -3.34375 C 2.585938 -3.25 2.734375 -3.117188 2.828125 -2.953125 C 2.921875 -2.785156 2.96875 -2.59375 2.96875 -2.375 Z M 1.625 -1.9375 C 1.789062 -1.9375 1.910156 -1.972656 1.984375 -2.046875 C 2.066406 -2.117188 2.109375 -2.226562 2.109375 -2.375 C 2.109375 -2.507812 2.066406 -2.613281 1.984375 -2.6875 C 1.910156 -2.769531 1.789062 -2.8125 1.625 -2.8125 L 1.15625 -2.8125 L 1.15625 -1.9375 Z M 1.625 -1.9375 "/></g></g></g><g fill="#00bf63" fill-opacity="1"><g transform="translate(116.600729, 47.659703)"><g><path d="M 1.15625 -2.8125 L 1.15625 -2.109375 L 2.296875 -2.109375 L 2.296875 -1.453125 L 1.15625 -1.453125 L 1.15625 -0.6875 L 2.453125 -0.6875 L 2.453125 0 L 0.3125 0 L 0.3125 -3.5 L 2.453125 -3.5 L 2.453125 -2.8125 Z M 1.15625 -2.8125 "/></g></g></g><g fill="#00bf63" fill-opacity="1"><g transform="translate(120.140421, 47.659703)"><g><path d="M 2.09375 0 L 1.359375 -1.328125 L 1.15625 -1.328125 L 1.15625 0 L 0.3125 0 L 0.3125 -3.5 L 1.734375 -3.5 C 2.015625 -3.5 2.25 -3.445312 2.4375 -3.34375 C 2.632812 -3.25 2.78125 -3.117188 2.875 -2.953125 C 2.976562 -2.785156 3.03125 -2.597656 3.03125 -2.390625 C 3.03125 -2.160156 2.960938 -1.953125 2.828125 -1.765625 C 2.691406 -1.585938 2.5 -1.460938 2.25 -1.390625 L 3.0625 0 Z M 1.15625 -1.921875 L 1.6875 -1.921875 C 1.84375 -1.921875 1.957031 -1.957031 2.03125 -2.03125 C 2.113281 -2.113281 2.15625 -2.222656 2.15625 -2.359375 C 2.15625 -2.492188 2.113281 -2.597656 2.03125 -2.671875 C 1.957031 -2.753906 1.84375 -2.796875 1.6875 -2.796875 L 1.15625 -2.796875 Z M 1.15625 -1.921875 "/></g></g></g><g fill="#00bf63" fill-opacity="1"><g transform="translate(124.232721, 47.659703)"><g><path d="M 3.4375 0 L 2.59375 0 L 1.15625 -2.15625 L 1.15625 0 L 0.3125 0 L 0.3125 -3.5 L 1.15625 -3.5 L 2.59375 -1.328125 L 2.59375 -3.5 L 3.4375 -3.5 Z M 3.4375 0 "/></g></g></g><g fill="#00bf63" fill-opacity="1"><g transform="translate(128.822871, 47.659703)"><g><path d="M 1.15625 -3.5 L 1.15625 0 L 0.3125 0 L 0.3125 -3.5 Z M 1.15625 -3.5 "/></g></g></g><g fill="#00bf63" fill-opacity="1"><g transform="translate(131.137855, 47.659703)"><g><path d="M 2.34375 0 L 1.15625 -1.546875 L 1.15625 0 L 0.3125 0 L 0.3125 -3.5 L 1.15625 -3.5 L 1.15625 -1.96875 L 2.328125 -3.5 L 3.328125 -3.5 L 1.96875 -1.78125 L 3.375 0 Z M 2.34375 0 "/></g></g></g><g fill="#00bf63" fill-opacity="1"><g transform="translate(135.454189, 47.659703)"><g><path d="M 2.484375 -0.625 L 1.1875 -0.625 L 0.96875 0 L 0.078125 0 L 1.34375 -3.5 L 2.328125 -3.5 L 3.59375 0 L 2.703125 0 Z M 2.265625 -1.28125 L 1.828125 -2.5625 L 1.40625 -1.28125 Z M 2.265625 -1.28125 "/></g></g></g><g fill="#00bf63" fill-opacity="1"><g transform="translate(139.969664, 47.659703)"><g><path d="M 3.34375 -3.5 L 3.34375 0 L 2.484375 0 L 2.484375 -1.4375 L 1.15625 -1.4375 L 1.15625 0 L 0.3125 0 L 0.3125 -3.5 L 1.15625 -3.5 L 1.15625 -2.125 L 2.484375 -2.125 L 2.484375 -3.5 Z M 3.34375 -3.5 "/></g></g></g><g fill="#00bf63" fill-opacity="1"><g transform="translate(144.455274, 47.659703)"><g><path d="M 2.484375 -0.625 L 1.1875 -0.625 L 0.96875 0 L 0.078125 0 L 1.34375 -3.5 L 2.328125 -3.5 L 3.59375 0 L 2.703125 0 Z M 2.265625 -1.28125 L 1.828125 -2.5625 L 1.40625 -1.28125 Z M 2.265625 -1.28125 "/></g></g></g><g fill="#00bf63" fill-opacity="1"><g transform="translate(148.97075, 47.659703)"><g><path d="M 3.4375 0 L 2.59375 0 L 1.15625 -2.15625 L 1.15625 0 L 0.3125 0 L 0.3125 -3.5 L 1.15625 -3.5 L 2.59375 -1.328125 L 2.59375 -3.5 L 3.4375 -3.5 Z M 3.4375 0 "/></g></g></g><g fill="#00bf63" fill-opacity="1"><g transform="translate(153.560899, 47.659703)"><g/></g></g><g fill="#00bf63" fill-opacity="1"><g transform="translate(155.462671, 47.659703)"><g><path d="M 1.625 -3.5 C 1.988281 -3.5 2.304688 -3.425781 2.578125 -3.28125 C 2.859375 -3.132812 3.070312 -2.925781 3.21875 -2.65625 C 3.375 -2.394531 3.453125 -2.09375 3.453125 -1.75 C 3.453125 -1.40625 3.375 -1.097656 3.21875 -0.828125 C 3.070312 -0.566406 2.859375 -0.363281 2.578125 -0.21875 C 2.304688 -0.0703125 1.988281 0 1.625 0 L 0.3125 0 L 0.3125 -3.5 Z M 1.5625 -0.734375 C 1.882812 -0.734375 2.132812 -0.820312 2.3125 -1 C 2.5 -1.175781 2.59375 -1.425781 2.59375 -1.75 C 2.59375 -2.070312 2.5 -2.320312 2.3125 -2.5 C 2.132812 -2.675781 1.882812 -2.765625 1.5625 -2.765625 L 1.15625 -2.765625 L 1.15625 -0.734375 Z M 1.5625 -0.734375 "/></g></g></g><g fill="#00bf63" fill-opacity="1"><g transform="translate(159.928365, 47.659703)"><g><path d="M 1.15625 -3.5 L 1.15625 0 L 0.3125 0 L 0.3125 -3.5 Z M 1.15625 -3.5 "/></g></g></g><g fill="#00bf63" fill-opacity="1"><g transform="translate(162.243349, 47.659703)"><g><path d="M 3.4375 0 L 2.59375 0 L 1.15625 -2.15625 L 1.15625 0 L 0.3125 0 L 0.3125 -3.5 L 1.15625 -3.5 L 2.59375 -1.328125 L 2.59375 -3.5 L 3.4375 -3.5 Z M 3.4375 0 "/></g></g></g><g fill="#00bf63" fill-opacity="1"><g transform="translate(166.833498, 47.659703)"><g><path d="M 1.15625 -3.5 L 1.15625 0 L 0.3125 0 L 0.3125 -3.5 Z M 1.15625 -3.5 "/></g></g></g></svg>